<?xml version="1.0" encoding="utf-8"?>
<!-- Generator: Adobe Illustrator 23.0.1, SVG Export Plug-In . SVG Version: 6.00 Build 0)  -->
<svg version="1.1" xmlns="http://www.w3.org/2000/svg" xmlns:xlink="http://www.w3.org/1999/xlink" x="0px" y="0px"
	 viewBox="0 0 77.56 49.45" style="enable-background:new 0 0 77.56 49.45;" xml:space="preserve">
<g>
	<path fill="#ffffff" d="M25.88,21.39h-2.04c-0.83,0-1.5,0.67-1.5,1.5c0,0.83,0.67,1.5,1.5,1.5h2.04c0.83,0,1.5-0.67,1.5-1.5
		C27.38,22.06,26.71,21.39,25.88,21.39z"/>
	<path fill="#ffffff" d="M73.01,16.38h-3.85V11.5c0-6.34-5.16-11.5-11.5-11.5h-35.1c-6.34,0-11.5,5.16-11.5,11.5v6.36H8.18
		c-2.59,0-4.69,2.11-4.69,4.69v19.73H1.5c-0.83,0-1.5,0.67-1.5,1.5c0,3.13,2.54,5.67,5.67,5.67h17.45h20.92
		c1.78,0,3.38-0.83,4.42-2.12h3.72c1.39,0,2.7,0.54,3.68,1.53c0.59,0.58,1.54,0.59,2.12,0c0.59-0.59,0.58-1.54,0-2.12
		c-1.55-1.55-3.61-2.4-5.8-2.4h-2.49c0.02-0.18,0.03-0.37,0.03-0.55c0-0.83-0.67-1.5-1.5-1.5h-1.98v-3.64h11.42
		c0.14,0,0.27-0.02,0.41-0.02v5.88c0,2.51,2.04,4.55,4.55,4.55h10.39c2.51,0,4.56-2.04,4.56-4.55V20.93
		C77.56,18.42,75.52,16.38,73.01,16.38z M74.56,44.49c0,0.86-0.7,1.55-1.56,1.55H62.62c-0.86,0-1.55-0.69-1.55-1.55v-1.56h13.5h0
		V44.49z M74.56,20.93v1.27h0h-5.41h-3h-5.09v-1.27c0-0.86,0.7-1.56,1.55-1.56h3.53h3h3.85C73.87,19.38,74.56,20.07,74.56,20.93z
		 M61.06,34.92v-9.71h5.09h3h5.41h0v14.72h0h-13.5v-1.81V34.92z M43.23,38.64v3.64H6.48V22.55c0-0.93,0.76-1.69,1.69-1.69h2.87h3
		h27.49c0.93,0,1.69,0.76,1.69,1.69v13.08V38.64z M3.46,45.28h1.52h14.16c0.27,0.59,0.79,1.03,1.43,1.17H5.67
		C4.75,46.45,3.94,45.99,3.46,45.28z M44.04,46.45H29.14c0.64-0.15,1.17-0.59,1.43-1.17h14.16h1.52
		C45.77,45.99,44.96,46.45,44.04,46.45z M57.65,35.64H46.23V22.55c0-2.59-2.11-4.69-4.69-4.69H14.05V11.5c0-4.69,3.81-8.5,8.5-8.5
		h35.1c4.69,0,8.5,3.81,8.5,8.5v4.88h-3.53c-2.51,0-4.55,2.04-4.55,4.56v14.68C57.93,35.62,57.79,35.64,57.65,35.64z"/>
	<path fill="#ffffff" d="M67.77,43.62c-0.49,0-0.9,0.4-0.9,0.89c0,0.49,0.4,0.89,0.9,0.89c0.49,0,0.89-0.4,0.89-0.89
		C68.66,44.02,68.26,43.62,67.77,43.62z"/>
</g>
</svg>
