<?xml version="1.0" encoding="utf-8"?>
<!-- Generator: Adobe Illustrator 23.0.1, SVG Export Plug-In . SVG Version: 6.00 Build 0)  -->
<svg version="1.1" xmlns="http://www.w3.org/2000/svg" xmlns:xlink="http://www.w3.org/1999/xlink" x="0px" y="0px"
	 viewBox="0 0 58.1 49.45" style="enable-background:new 0 0 58.1 49.45;" xml:space="preserve">
<path fill="#ffffff" d="M28.97,5.72c-7.5,0-13.59,6.1-13.59,13.59c0,7.49,6.09,13.58,13.57,13.59c0.01,0,0.01,0,0.02,0c0.01,0,0.01,0,0.02,0
	c7.49-0.01,13.58-6.1,13.58-13.59C42.57,11.82,36.47,5.72,28.97,5.72z M27.47,9.28v8.53h-3.46C24.31,13.63,25.81,10.5,27.47,9.28z
	 M27.47,20.82l0,8.53c-1.67-1.21-3.16-4.35-3.46-8.53H27.47z M30.47,29.35l0-8.53h3.46C33.64,25,32.14,28.13,30.47,29.35z
	 M30.47,17.82V9.28c1.67,1.21,3.16,4.35,3.46,8.53H30.47z M22.69,10.81c-0.91,1.95-1.51,4.35-1.68,7H18.5
	C18.91,14.95,20.46,12.46,22.69,10.81z M18.5,20.82h2.51c0.17,2.65,0.76,5.05,1.68,7C20.46,26.17,18.91,23.68,18.5,20.82z
	 M35.26,27.82c0.91-1.95,1.51-4.35,1.68-7h2.51C39.04,23.68,37.49,26.17,35.26,27.82z M36.94,17.82c-0.17-2.65-0.76-5.05-1.68-7
	c2.22,1.65,3.78,4.14,4.18,7H36.94z"/>
<path fill="#ffffff" d="M46.6,0H11.5C5.16,0,0,5.16,0,11.5v15.64c0,6.34,5.16,11.5,11.5,11.5h35.1c6.34,0,11.5-5.16,11.5-11.5V11.5
	C58.1,5.16,52.94,0,46.6,0z M55.1,27.14c0,4.69-3.81,8.5-8.5,8.5H11.5c-4.69,0-8.5-3.81-8.5-8.5V11.5C3,6.81,6.81,3,11.5,3h35.1
	c4.69,0,8.5,3.81,8.5,8.5V27.14z"/>
<path fill="#ffffff" d="M13.29,48.86c0.97-0.97,2.31-1.53,3.68-1.53h24.16c1.37,0,2.71,0.56,3.68,1.53c0.59,0.59,1.54,0.59,2.12,0
	c0.59-0.59,0.59-1.54,0-2.12c-1.55-1.55-3.61-2.4-5.8-2.4H16.97c-2.19,0-4.25,0.85-5.8,2.4l-0.15,0.15c-0.59,0.59-0.59,1.54,0,2.12
	c0.29,0.29,0.68,0.44,1.06,0.44c0.38,0,0.77-0.15,1.06-0.44L13.29,48.86z"/>
</svg>
